<?xml version="1.0" standalone="no"?><!DOCTYPE svg PUBLIC "-//W3C//DTD SVG 1.1//EN" "http://www.w3.org/Graphics/SVG/1.1/DTD/svg11.dtd"><svg t="1714469480924" class="icon" viewBox="0 0 1024 1024" version="1.1" xmlns="http://www.w3.org/2000/svg" p-id="150464" width="275" height="275" xmlns:xlink="http://www.w3.org/1999/xlink"><path d="M648.76385 387.55778c9.614985 0 19.127639 0.706081 28.563546 1.757017-25.665543-119.509884-153.434531-208.30421-299.276131-208.30421-163.049516 0-296.611441 111.138216-296.611441 252.264421 0 81.462337 44.436048 148.356886 118.690216 200.24158l-29.66667 89.228207 103.690594-51.997258c37.103036 7.344269 66.871013 14.895245 103.898325 14.895245 9.30697 0 18.537192-0.459464 27.689642-1.178849-5.794983-19.831674-9.152451-40.602743-9.152451-62.153571-0.001023-129.58638 111.279433-234.752582 252.17437-234.752582z m-159.484318-80.422658c22.333658 0 37.128619 14.69263 37.128619 37.012986 0 22.231327-14.794961 37.128619-37.128619 37.128618-22.231327 0-44.537356-14.897292-44.537355-37.128618 0-22.319331 22.307052-37.012985 44.537355-37.012986z m-207.587895 74.141604c-22.228257 0-44.664246-14.897292-44.664246-37.128618 0-22.320355 22.435988-37.012985 44.664246-37.012986 22.230304 0 37.026288 14.69263 37.026288 37.012986 0 22.231327-14.794961 37.128619-37.026288 37.128618z" fill="#99e666" p-id="150465"></path><path d="M170.461323 738.889497c-3.805676 0-7.568373-1.340531-10.564613-3.936659a16.147772 16.147772 0 0 1-4.761444-17.302061l25.922393-77.976956c-75.800383-56.343239-115.76663-127.492696-115.76663-206.398813 0-148.005892 140.30142-268.413216 312.757166-268.413216 151.496389 0 286.130739 93.717452 314.491671 218.451314a16.037255 16.037255 0 0 1 1.146103 6.002714c0 8.919137-7.221472 16.145725-16.145725 16.145725h-0.209778a15.738449 15.738449 0 0 1-1.786693-0.100284c-10.006911-1.11438-18.763342-1.655709-26.773783-1.655709-130.146129 0-236.031714 98.064456-236.031715 218.603786 0 18.937305 2.859118 38.325887 8.493442 57.630559a16.123212 16.123212 0 0 1-2.207272 13.696953 16.126282 16.126282 0 0 1-12.014638 6.92676c-10.490935 0.824785-19.961634 1.224898-28.959565 1.224897-32.755008 0-60.506049-5.697769-89.886193-11.726065-3.847631-0.787946-7.747451-1.592264-11.731182-2.396583l-98.726536 49.510623a16.163121 16.163121 0 0 1-7.245008 1.713015z m207.586872-541.735232c-154.649196 0-280.465716 105.922425-280.465716 236.121766 0 72.252581 37.611619 135.171586 111.793132 187.005114a16.153912 16.153912 0 0 1 6.075369 18.327414l-17.365506 52.222386 68.820412-34.515095a16.084327 16.084327 0 0 1 10.375301-1.408069 2868.182988 2868.182988 0 0 1 17.37574 3.521196c31.272237 6.417153 57.415664 11.789511 90.695628 10.973936-3.258207-15.768125-4.9088-31.540344-4.9088-47.092551 0-138.345881 120.370485-250.895237 268.324188-250.895237 2.270716 0 4.583388 0.036839 6.948249 0.110517-33.878598-100.784404-148.856259-174.371376-277.667997-174.371377zM489.283626 397.424498c-29.1806 0-60.685127-20.366863-60.685128-53.27332 0-32.838919 31.503505-53.163827 60.685128-53.163827 31.367405 0 53.273321 21.858844 53.27332 53.163827 0.001023 31.366382-21.905916 53.273321-53.27332 53.27332z m0-74.144674c-13.707187 0-28.392654 8.388041-28.392654 20.871354 0 12.550851 14.685467 20.98187 28.392654 20.98187 13.328563 0 20.98187-7.647167 20.98187-20.98187 0-13.46057-7.452739-20.871353-20.98187-20.871354zM281.696754 397.424498c-29.244045 0-60.810994-20.366863-60.810995-53.27332 0-32.838919 31.56695-53.163827 60.810995-53.163827 31.30396 0 53.168943 21.858844 53.168943 53.163827 0 31.366382-21.864984 53.273321-53.168943 53.27332z m0-74.144674c-13.770632 0-28.51852 8.388041-28.518521 20.871354 0 12.366655 15.032368 20.98187 28.518521 20.98187 13.266142 0 20.87647-7.647167 20.876469-20.98187 0-13.266142-7.610328-20.871353-20.876469-20.871354z" fill="#885F44" p-id="150466"></path><path d="M942.566316 631.498628c0-118.587885-118.66668-215.252459-251.945149-215.252459-141.126204 0-252.277724 96.664573-252.277724 215.252459 0 118.792547 111.151519 215.252459 252.277724 215.252459 29.537733 0 59.33027-7.448646 88.997963-14.885012l81.356936 44.551682-22.307052-74.126255c59.538001-44.666292 103.897302-103.897302 103.897302-170.792874z m-333.74006-37.115316c-14.769378 0-29.66667-14.69263-29.66667-29.679973 0-14.779611 14.897292-29.6636 29.66667-29.6636 22.435988 0 37.128619 14.885012 37.128619 29.6636 0 14.987343-14.69263 29.679973-37.128619 29.679973z m163.15287 0c-14.667048 0-29.462009-14.69263-29.462009-29.679973 0-14.779611 14.794961-29.6636 29.462009-29.6636 22.230304 0 37.125549 14.885012 37.125549 29.6636 0 14.987343-14.895245 29.679973-37.125549 29.679973z" fill="#e6e6e6" p-id="150467"></path><path d="M860.981183 892.561435c-2.659573 0-5.329379-0.651846-7.757685-1.98112l-75.810616-41.516556c-28.223808 7.043417-57.310264 13.833053-86.795808 13.833053-148.005892 0-268.418332-103.804181-268.418333-231.396137 0-127.597073 120.41244-231.401254 268.418333-231.401254 145.325853 0 268.092921 105.969497 268.092921 231.401254 0 62.292742-35.897581 124.727723-101.375876 176.777169l19.110244 63.4808a16.130376 16.130376 0 0 1-5.297656 17.197684 16.096607 16.096607 0 0 1-10.165524 3.605107z m-81.361029-76.841085c2.691295 0 5.361101 0.672312 7.757684 1.98112l46.777373 25.617448-10.95347-36.370349a16.147772 16.147772 0 0 1 5.771447-17.570168c62.839187-47.140647 97.444333-103.20964 97.444333-157.876703 0-107.930151-107.987457-199.10878-235.800447-199.10878-130.199341 0-236.126882 89.318258-236.126882 199.10878 0 109.785405 105.927541 199.103664 236.126882 199.103664 27.635407 0 56.837496-7.321756 85.071537-14.400989a16.390295 16.390295 0 0 1 3.931543-0.484023z m-7.642051-205.190289c-23.87271 0-45.610804-21.843494-45.610804-45.825699 0-23.546276 22.168905-45.810349 45.610804-45.810348 29.380144 0 53.273321 20.551058 53.273321 45.810348 0 25.270547-23.893176 45.825698-53.273321 45.825699z m0-59.344597c-5.728468 0-13.31833 7.705496-13.31833 13.517875 0 5.944386 7.462972 13.534248 13.31833 13.534248 13.507642 0 20.98187-8.004301 20.98187-13.534248-0.001023-5.522784-7.474228-13.517875-20.98187-13.517875z m-163.153894 59.344597c-23.977088 0-45.810349-21.843494-45.810348-45.825699 0-23.546276 22.264073-45.810349 45.810348-45.810348 32.902364 0 53.273321 23.777543 53.273321 45.810348 0 22.526039-19.929912 45.825698-53.273321 45.825699z m0-59.344597c-5.813403 0-13.517875 7.705496-13.517875 13.517875 0 5.944386 7.578606 13.534248 13.517875 13.534248 13.68672 0 20.98187-7.857968 20.98187-13.534248-0.001023-5.522784-7.474228-13.517875-20.98187-13.517875z" fill="#885F44" p-id="150468"></path></svg>